<svg fill="#EC6800" version="1.1" id="Capa_1" xmlns="http://www.w3.org/2000/svg" xmlns:xlink="http://www.w3.org/1999/xlink" 
   viewBox="0 0 478.666 478.666" width="60px" height="60px" xml:space="preserve" class="icon-div">
   <g class="closed-door"> <!-- Добавляем класс "closed-door" -->
      <path d="M71.553,0v478.085l335.561,0.581V0H71.553z M103.109,446.583V31.558h272.445v56.813h-10.781V42.086H113.893v394.468 h250.881V390.27h10.781v56.785L103.109,446.583z M364.773,137.459h10.781V341.18h-10.781V137.459z M165.787,239.32 c0,9.148-7.418,16.566-16.568,16.566c-9.15,0-16.568-7.418-16.568-16.566c0-9.15,7.418-16.568,16.568-16.568 C158.369,222.752,165.787,230.17,165.787,239.32z"/>
   </g>
   <g class="open-door"> <!-- Добавляем класс "open-door" -->
      <path d="M285.048,21.72L164.234,0v21.72H79.292v433.358h31.403V53.123h53.539V492.5l208.15-37.422v-61.235h9.421v61.235h31.403 V21.72H285.048z M202.526,263.129c-6.997,0-12.67-7.381-12.67-16.486c0-9.104,5.673-16.485,12.67-16.485s12.67,7.381,12.67,16.485 C215.196,255.748,209.523,263.129,202.526,263.129z M381.805,344.646h-9.421V142.621h9.421V344.646z M381.805,93.423h-9.421v-40.3 h9.421V93.423z"/>
   </g>
</svg>