<svg version="1.1" id="Capa_1" xmlns="http://www.w3.org/2000/svg" xmlns:xlink="http://www.w3.org/1999/xlink" x="0px" y="0px"
	 viewBox="0 0 512 512" style="enable-background:new 0 0 512 512;" xml:space="preserve">
	<style>
		.buy-button {
			fill: white;
			stroke: black;
			transition: fill 0.2s ease; /* Добавляем плавное изменение цвета */
		}
		.buy-button-back {
			fill: gray;
			stroke: black;
			transition: background 0.2s ease; /* Добавляем плавное изменение цвета фона */
		}
	</style>
	<path class="buy-button-back" d="M478.553,382.589c-1.567,2.759-3.323,5.705-5.256,8.808c-27.136,43.468-66.957,78.211-114.291,99.035
	c-7.795,3.427-15.799,6.489-23.98,9.132c-4.827,1.567-9.718,2.999-14.66,4.274l32.172-444.771l39.999,34.994l42.998,1.003
	L478.553,382.589z"/>
	<path class="buy-button" d="M334.503,64.92c-10.909-28.421-28.212-53.77-56.592-49.246c-6.51-8.631-15.475-14.858-27.847-15.6
	h-0.042C249.208,0.021,248.383,0,247.536,0c-2.529,0-5.036,0.167-7.523,0.491c-44.116,5.778-80.238,61.67-93.8,125.555l-61.67,20.02
	l-33.73,263.053c18.474,24.701,41.294,45.965,67.344,62.631l188.938,35.15c9.509-1.923,18.829-4.378,27.93-7.335l17.512-440.498
	L334.503,64.92z M165.763,119.704c0,0,8.777-27.638,20.773-52.642c12.006-24.994,51.001-61.001,73.007-47.501
	c0.658,0.408,1.296,0.846,1.902,1.317c-25.266,11.661-45.108,38.922-55.223,85.692L165.763,119.704z M276.741,83.675l-49.622,16.102
	c0,0,9.467-51.493,44.534-64.136C279.406,55.557,276.741,83.675,276.741,83.675z M295.037,77.73c0,0,0-23.291-7.795-44.377
	c17.983,1.881,27.209,21.138,31.754,36.603L295.037,77.73z"/>
	<script>
		
	</script>
</svg>